<mxfile host="app.diagrams.net" agent="Mozilla/5.0 (X11; Linux x86_64) AppleWebKit/537.36 (KHTML, like Gecko) Chrome/126.0.0.0 Safari/537.36" version="24.7.5">
  <diagram name="Page-1" id="Nd26QgaI1ZVaDjxUP3vX">
    <mxGraphModel dx="841" dy="599" grid="1" gridSize="10" guides="1" tooltips="1" connect="1" arrows="1" fold="1" page="1" pageScale="1" pageWidth="850" pageHeight="1100" math="0" shadow="0">
      <root>
        <mxCell id="0" />
        <mxCell id="1" parent="0" />
        <mxCell id="aH8Q2QlmR982SLVBIDKD-9" value="" style="rounded=0;whiteSpace=wrap;html=1;fillColor=none;dashed=1;" vertex="1" parent="1">
          <mxGeometry x="150" y="174" width="510" height="120" as="geometry" />
        </mxCell>
        <mxCell id="aH8Q2QlmR982SLVBIDKD-1" value="Class Loader" style="rounded=0;whiteSpace=wrap;html=1;fillColor=#f5f5f5;fontColor=#333333;strokeColor=#666666;shadow=1;" vertex="1" parent="1">
          <mxGeometry x="320" y="80" width="120" height="60" as="geometry" />
        </mxCell>
        <mxCell id="aH8Q2QlmR982SLVBIDKD-3" style="edgeStyle=orthogonalEdgeStyle;rounded=0;orthogonalLoop=1;jettySize=auto;html=1;entryX=0;entryY=0.5;entryDx=0;entryDy=0;strokeWidth=3;" edge="1" parent="1" source="aH8Q2QlmR982SLVBIDKD-2" target="aH8Q2QlmR982SLVBIDKD-1">
          <mxGeometry relative="1" as="geometry" />
        </mxCell>
        <mxCell id="aH8Q2QlmR982SLVBIDKD-2" value="Archivos de Clases" style="text;html=1;align=center;verticalAlign=middle;whiteSpace=wrap;rounded=0;" vertex="1" parent="1">
          <mxGeometry x="135" y="95" width="130" height="30" as="geometry" />
        </mxCell>
        <mxCell id="aH8Q2QlmR982SLVBIDKD-4" value="Heap" style="rounded=0;whiteSpace=wrap;html=1;fillColor=#f5f5f5;fontColor=#333333;strokeColor=#666666;shadow=1;" vertex="1" parent="1">
          <mxGeometry x="283" y="201" width="65" height="60" as="geometry" />
        </mxCell>
        <mxCell id="aH8Q2QlmR982SLVBIDKD-5" value="Method Area" style="rounded=0;whiteSpace=wrap;html=1;fillColor=#f5f5f5;fontColor=#333333;strokeColor=#666666;shadow=1;" vertex="1" parent="1">
          <mxGeometry x="188" y="201" width="70" height="60" as="geometry" />
        </mxCell>
        <mxCell id="aH8Q2QlmR982SLVBIDKD-6" value="Stack" style="rounded=0;whiteSpace=wrap;html=1;fillColor=#f5f5f5;fontColor=#333333;strokeColor=#666666;shadow=1;" vertex="1" parent="1">
          <mxGeometry x="373" y="201" width="70" height="60" as="geometry" />
        </mxCell>
        <mxCell id="aH8Q2QlmR982SLVBIDKD-7" value="PC Registers" style="rounded=0;whiteSpace=wrap;html=1;fillColor=#f5f5f5;fontColor=#333333;strokeColor=#666666;shadow=1;" vertex="1" parent="1">
          <mxGeometry x="466" y="201" width="70" height="60" as="geometry" />
        </mxCell>
        <mxCell id="aH8Q2QlmR982SLVBIDKD-8" value="Native Method Stack" style="rounded=0;whiteSpace=wrap;html=1;fillColor=#f5f5f5;fontColor=#333333;strokeColor=#666666;shadow=1;" vertex="1" parent="1">
          <mxGeometry x="558" y="201" width="70" height="60" as="geometry" />
        </mxCell>
        <mxCell id="aH8Q2QlmR982SLVBIDKD-10" value="JVM Memory" style="text;html=1;align=center;verticalAlign=middle;whiteSpace=wrap;rounded=0;" vertex="1" parent="1">
          <mxGeometry x="330" y="174" width="100" height="30" as="geometry" />
        </mxCell>
        <mxCell id="aH8Q2QlmR982SLVBIDKD-11" value="" style="endArrow=classic;html=1;rounded=0;strokeWidth=5;exitX=0.327;exitY=1.02;exitDx=0;exitDy=0;exitPerimeter=0;" edge="1" parent="1" source="aH8Q2QlmR982SLVBIDKD-1">
          <mxGeometry width="50" height="50" relative="1" as="geometry">
            <mxPoint x="360" y="135" as="sourcePoint" />
            <mxPoint x="360" y="175" as="targetPoint" />
          </mxGeometry>
        </mxCell>
        <mxCell id="aH8Q2QlmR982SLVBIDKD-12" value="" style="endArrow=classic;html=1;rounded=0;strokeWidth=5;exitX=0.704;exitY=-0.053;exitDx=0;exitDy=0;exitPerimeter=0;" edge="1" parent="1" source="aH8Q2QlmR982SLVBIDKD-10">
          <mxGeometry width="50" height="50" relative="1" as="geometry">
            <mxPoint x="400" y="182" as="sourcePoint" />
            <mxPoint x="400" y="140" as="targetPoint" />
          </mxGeometry>
        </mxCell>
        <mxCell id="aH8Q2QlmR982SLVBIDKD-13" value="Execution Engine" style="rounded=0;whiteSpace=wrap;html=1;fillColor=#f5f5f5;fontColor=#333333;strokeColor=#666666;shadow=1;" vertex="1" parent="1">
          <mxGeometry x="150" y="324" width="120" height="40" as="geometry" />
        </mxCell>
        <mxCell id="aH8Q2QlmR982SLVBIDKD-14" value="Native Method Interfac&lt;span style=&quot;color: rgba(0, 0, 0, 0); font-family: monospace; font-size: 0px; text-align: start; text-wrap: nowrap;&quot;&gt;%3CmxGraphModel%3E%3Croot%3E%3CmxCell%20id%3D%220%22%2F%3E%3CmxCell%20id%3D%221%22%20parent%3D%220%22%2F%3E%3CmxCell%20id%3D%222%22%20value%3D%22Execution%20Engine%22%20style%3D%22rounded%3D0%3BwhiteSpace%3Dwrap%3Bhtml%3D1%3BfillColor%3D%23f5f5f5%3BfontColor%3D%23333333%3BstrokeColor%3D%23666666%3Bshadow%3D1%3B%22%20vertex%3D%221%22%20parent%3D%221%22%3E%3CmxGeometry%20x%3D%22170%22%20y%3D%22320%22%20width%3D%22120%22%20height%3D%2240%22%20as%3D%22geometry%22%2F%3E%3C%2FmxCell%3E%3C%2Froot%3E%3C%2FmxGraphModel%3E&lt;/span&gt;&lt;span style=&quot;color: rgba(0, 0, 0, 0); font-family: monospace; font-size: 0px; text-align: start; text-wrap: nowrap;&quot;&gt;%3CmxGraphModel%3E%3Croot%3E%3CmxCell%20id%3D%220%22%2F%3E%3CmxCell%20id%3D%221%22%20parent%3D%220%22%2F%3E%3CmxCell%20id%3D%222%22%20value%3D%22Execution%20Engine%22%20style%3D%22rounded%3D0%3BwhiteSpace%3Dwrap%3Bhtml%3D1%3BfillColor%3D%23f5f5f5%3BfontColor%3D%23333333%3BstrokeColor%3D%23666666%3Bshadow%3D1%3B%22%20vertex%3D%221%22%20parent%3D%221%22%3E%3CmxGeometry%20x%3D%22170%22%20y%3D%22320%22%20width%3D%22120%22%20height%3D%2240%22%20as%3D%22geometry%22%2F%3E%3C%2FmxCell%3E%3C%2Froot%3E%3C%2FmxGraphModel%3E&lt;/span&gt;e" style="rounded=0;whiteSpace=wrap;html=1;fillColor=#f5f5f5;fontColor=#333333;strokeColor=#666666;shadow=1;align=center;" vertex="1" parent="1">
          <mxGeometry x="340" y="324" width="120" height="40" as="geometry" />
        </mxCell>
        <mxCell id="aH8Q2QlmR982SLVBIDKD-15" value="Native Method Libraries&lt;span style=&quot;color: rgba(0, 0, 0, 0); font-family: monospace; font-size: 0px; text-align: start; text-wrap: nowrap;&quot;&gt;%3E%3Croot%3E%3CmxCell%20id%3D%220%22%2F%3E%3CmxCell%20id%3D%221%22%20parent%3D%220%22%2F%3E%3CmxCell%20id%3D%222%22%20value%3D%22Execution%20Engine%22%20style%3D%22rounded%3D0%3BwhiteSpace%3Dwrap%3Bhtml%3D1%3BfillColor%3D%23f5f5f5%3BfontColor%3D%23333333%3BstrokeColor%3D%23666666%3Bshadow%3D1%3B%22%20vertex%3D%221%22%20parent%3D%221%22%3E%3CmxGeometry%20x%3D%22170%22%20y%3D%22320%22%20width%3D%22120%22%20height%3D%2240%22%20as%3D%22geometry%22%2F%3E%3C%2FmxCell%3E%3C%2Froot%3E%3C%2FmxGraphModel%3E&lt;/span&gt;&lt;span style=&quot;color: rgba(0, 0, 0, 0); font-family: monospace; font-size: 0px; text-align: start; text-wrap: nowrap;&quot;&gt;%3CmxGraphModel%3E%3Croot%3E%3CmxCell%20id%3D%220%22%2F%3E%3CmxCell%20id%3D%221%22%20parent%3D%220%22%2F%3E%3CmxCell%20id%3D%222%22%20value%3D%22Execution%20Engine%22%20style%3D%22rounded%3D0%3BwhiteSpace%3Dwrap%3Bhtml%3D1%3BfillColor%3D%23f5f5f5%3BfontColor%3D%23333333%3BstrokeColor%3D%23666666%3Bshadow%3D1%3B%22%20vertex%3D%221%22%20parent%3D%221%22%3E%3CmxGeometry%20x%3D%22170%22%20y%3D%22320%22%20width%3D%22120%22%20height%3D%2240%22%20as%3D%22geometry%22%2F%3E%3C%2FmxCell%3E%3C%2Froot%3E%3C%2FmxGraphModel%3Es&lt;/span&gt;" style="rounded=0;whiteSpace=wrap;html=1;fillColor=#f5f5f5;fontColor=#333333;strokeColor=#666666;shadow=1;align=center;" vertex="1" parent="1">
          <mxGeometry x="536" y="324" width="120" height="40" as="geometry" />
        </mxCell>
        <mxCell id="aH8Q2QlmR982SLVBIDKD-17" value="" style="endArrow=classic;html=1;rounded=0;strokeWidth=5;exitX=0.327;exitY=1.02;exitDx=0;exitDy=0;exitPerimeter=0;" edge="1" parent="1">
          <mxGeometry width="50" height="50" relative="1" as="geometry">
            <mxPoint x="240" y="294" as="sourcePoint" />
            <mxPoint x="241" y="328" as="targetPoint" />
          </mxGeometry>
        </mxCell>
        <mxCell id="aH8Q2QlmR982SLVBIDKD-18" value="" style="endArrow=classic;html=1;rounded=0;strokeWidth=5;exitX=0.704;exitY=-0.053;exitDx=0;exitDy=0;exitPerimeter=0;" edge="1" parent="1">
          <mxGeometry width="50" height="50" relative="1" as="geometry">
            <mxPoint x="200" y="325" as="sourcePoint" />
            <mxPoint x="200" y="293" as="targetPoint" />
          </mxGeometry>
        </mxCell>
        <mxCell id="aH8Q2QlmR982SLVBIDKD-19" value="" style="endArrow=classic;html=1;rounded=0;strokeWidth=2;" edge="1" parent="1">
          <mxGeometry width="50" height="50" relative="1" as="geometry">
            <mxPoint x="269" y="339" as="sourcePoint" />
            <mxPoint x="342" y="339" as="targetPoint" />
          </mxGeometry>
        </mxCell>
        <mxCell id="aH8Q2QlmR982SLVBIDKD-20" value="" style="endArrow=classic;html=1;rounded=0;strokeWidth=2;" edge="1" parent="1">
          <mxGeometry width="50" height="50" relative="1" as="geometry">
            <mxPoint x="340" y="353" as="sourcePoint" />
            <mxPoint x="270" y="352" as="targetPoint" />
          </mxGeometry>
        </mxCell>
        <mxCell id="aH8Q2QlmR982SLVBIDKD-22" value="" style="endArrow=classic;html=1;rounded=0;strokeWidth=2;" edge="1" parent="1">
          <mxGeometry width="50" height="50" relative="1" as="geometry">
            <mxPoint x="462" y="352" as="sourcePoint" />
            <mxPoint x="535" y="352" as="targetPoint" />
          </mxGeometry>
        </mxCell>
        <mxCell id="aH8Q2QlmR982SLVBIDKD-23" value="" style="endArrow=classic;html=1;rounded=0;strokeWidth=2;" edge="1" parent="1">
          <mxGeometry width="50" height="50" relative="1" as="geometry">
            <mxPoint x="532" y="341" as="sourcePoint" />
            <mxPoint x="462" y="340" as="targetPoint" />
          </mxGeometry>
        </mxCell>
      </root>
    </mxGraphModel>
  </diagram>
</mxfile>
